<!-- src/icons/github.svg -->
<svg
  role="img"
  viewBox="0 0 24 24"
  fill="none"
  xmlns="http://www.w3.org/2000/svg"
>
  <title>GitHub icon</title>
  <path
    fill="currentColor"
    d="M12 .297C5.373.297 0 5.67 0 12.194c0 5.24 3.438 9.67
    8.205 11.24.6.113.82-.258.82-.577
    0-.285-.01-1.04-.016-2.04-3.338.726-4.042-1.61-4.042-1.61
    -.546-1.385-1.333-1.754-1.333-1.754-1.09-.75.082-.736.082-.736
    1.205.085 1.84 1.238 1.84 1.238 1.07 1.835 2.807 1.305
    3.492.997.108-.775.417-1.306.76-1.605-2.665-.305-5.466-1.332-5.466-5.93
    0-1.31.465-2.382 1.235-3.22-.123-.303-.536-1.527.117-3.176
    0 0 1.008-.323 3.301 1.23.96-.266 1.983-.398
    3.003-.403 1.02.005 2.044.137 3.006.403
    2.289-1.553 3.296-1.23 3.296-1.23
    .655 1.65.242 2.873.12 3.176.77.838
    1.233 1.91 1.233 3.22 0 4.61-2.807 5.62-5.48
    5.92.43.37.81 1.102.81 2.222
    0 1.606-.014 2.903-.014 3.296
    0 .32.216.694.825.576C20.565 21.86 24 17.435 24 12.194
    24 5.67 18.627.297 12 .297z"
  />
</svg>
